<svg width="225" height="281" viewBox="0 0 225 281" fill="none" xmlns="http://www.w3.org/2000/svg">
    <g opacity="0.4">
    <path d="M93.1881 111.192C139.75 94.5391 155.145 60.3065 157.023 45.2719C166.087 20.1484 181.75 8.57435 197.259 4.20847C211.306 0.254225 225.226 2.213 234 5.37337L234 145.982L234 200.517L234 249.102C206.964 288.654 171.417 280.616 157.023 271.654C136.746 254.307 106.018 258.065 93.1881 262.113C35.3616 275.991 11.5173 256.33 6.82342 244.766C2.46117 230.281 1.24975 217.025 2.42108 204.962C3.64002 192.408 7.43934 181.146 12.9535 171.135C31.3318 137.767 68.7592 118.291 93.1881 111.192Z" fill="#198FFF" fill-opacity="0.4"/>
    <path d="M6.82342 244.766C11.5173 256.33 35.3616 275.991 93.1881 262.113C106.018 258.065 136.746 254.307 157.023 271.654C171.417 280.616 206.964 288.654 234 249.102L234 200.517M6.82342 244.766C2.46117 230.281 1.24975 217.025 2.42108 204.962M6.82342 244.766C100.802 237.057 130.382 240.063 133.424 246.487C168.721 270.773 215.182 225.96 234 200.517M197.259 4.20847C211.306 0.254225 225.226 2.213 234 5.37337L234 145.982M197.259 4.20847C181.75 8.57435 166.087 20.1484 157.023 45.2719C155.145 60.3065 139.75 94.5391 93.1881 111.192C68.7592 118.291 31.3318 137.767 12.9535 171.135M197.259 4.20847C194.756 17.3501 195.006 47.2761 216.034 61.8478C225.735 71.3255 236.874 94.4632 203.83 111.192C192.878 113.826 168.721 124.124 159.709 144.247C155.641 150.897 142.812 166.798 124.037 177.206C117.153 182.7 97.1889 189.176 72.406 171.135C55.3009 169.111 19.4632 166.278 12.9535 171.135M12.9535 171.135C7.43934 181.146 3.64002 192.408 2.42108 204.962M2.42108 204.962H36.7336C39.8628 204.673 48.7496 203.401 59.2635 200.625C63.9572 197.445 76.5365 192.992 89.3034 200.625C105.575 213.346 144.689 232.024 170.974 204.962C177.858 198.601 195.006 181.023 208.524 161.594C212.365 155.523 222.838 143.9 234 145.982M234 145.982L234 200.517" stroke="white" stroke-width="3"/>
    </g>
    </svg>
    