<svg width="80" height="80" viewBox="0 0 80 80" fill="none" xmlns="http://www.w3.org/2000/svg">
    <g clip-path="url(#clip0_10_2424)">
    <path d="M73.6003 29.2064H68.8325V28.6709C68.8325 27.3381 67.7482 26.2539 66.4153 26.2539H57.0119C56.3638 26.2539 55.8384 26.7792 55.8384 27.4274C55.8384 28.0757 56.3638 28.601 57.0119 28.601H66.4153C66.454 28.601 66.4854 28.6323 66.4854 28.6709V42.9797C66.4854 43.628 67.0109 44.1532 67.659 44.1532C68.3071 44.1532 68.8325 43.628 68.8325 42.9797V31.5534H73.6003C73.759 31.5534 73.8881 31.6825 73.8881 31.8412V72.783C73.8881 75.4686 71.7033 77.6534 69.0178 77.6534H10.983C8.29749 77.6534 6.11269 75.4686 6.11269 72.783V31.8412C6.11269 31.6825 6.24178 31.5534 6.40044 31.5534H11.3247V71.6903C11.3247 73.3451 12.671 74.6915 14.326 74.6915H65.8311C67.4861 74.6915 68.8324 73.3452 68.8324 71.6903V47.9851C68.8324 47.3368 68.3069 46.8115 67.6588 46.8115C67.0107 46.8115 66.4853 47.3368 66.4853 47.9851V64.8731H47.4985C45.0394 64.8731 42.82 65.913 41.2522 67.5741V52.3941C41.2522 51.7458 40.7267 51.2206 40.0786 51.2206C39.4305 51.2206 38.9051 51.7458 38.9051 52.3941V67.5743C37.3373 65.9132 35.1177 64.8733 32.6588 64.8733H27.3262C26.6781 64.8733 26.1527 65.3986 26.1527 66.0468C26.1527 66.6951 26.6781 67.2203 27.3262 67.2203H32.6588C35.7198 67.2203 38.2719 69.4343 38.8023 72.3445H14.326C14.1526 72.3443 13.9862 72.2753 13.8636 72.1527C13.7409 72.03 13.672 71.8637 13.6718 71.6903V67.2203H22.3207C22.9688 67.2203 23.4943 66.6951 23.4943 66.0468C23.4943 65.3986 22.9688 64.8733 22.3207 64.8733H13.6718V28.6709C13.6718 28.6323 13.7033 28.601 13.7419 28.601H23.1453C23.7934 28.601 24.3189 28.0757 24.3189 27.4274C24.3189 26.7792 23.7934 26.2539 23.1453 26.2539H13.7419C12.4091 26.2539 11.3247 27.3382 11.3247 28.6709V29.2064H6.40044C4.94761 29.2064 3.76562 30.3883 3.76562 31.8412V72.783C3.76562 76.7627 7.00332 80.0004 10.983 80.0004H69.0175C72.9971 80.0004 76.2348 76.7627 76.2348 72.783V31.8412C76.235 30.3883 75.0532 29.2064 73.6003 29.2064ZM47.4985 67.2202H66.4853V71.6903C66.4851 71.8637 66.4161 72.03 66.2935 72.1527C66.1708 72.2753 66.0045 72.3443 65.8311 72.3445H41.3551C41.8854 69.4341 44.4374 67.2202 47.4985 67.2202Z" fill="#5A5A5A"/>
    <path d="M24.4325 16.4656C25.0767 16.5254 25.6502 16.0527 25.711 15.4074C26.0467 11.8486 27.6899 8.55364 30.3387 6.12959C33.0038 3.69052 36.4629 2.34706 40.079 2.34706C48.0376 2.34706 54.5123 8.82183 54.5123 16.7803C54.5123 19.775 53.6034 22.6468 51.8839 25.0859C51.8743 25.0997 51.8648 25.1137 51.8556 25.1278L44.3459 36.819C44.2244 37.0083 44.1597 37.2284 44.1597 37.4534V38.9736C44.1596 39.122 44.1006 39.2642 43.9957 39.3691C43.8908 39.474 43.7486 39.533 43.6002 39.5332H43.5235L44.2712 26.8473H45.608C47.5211 26.8473 49.0773 25.291 49.0773 23.3782V23.2358C49.0773 21.3229 47.5211 19.7667 45.608 19.7667C43.774 19.7667 42.2528 21.2009 42.1449 23.0317L42.0583 24.5002H37.943L37.8565 23.0317C37.7487 21.2009 36.2273 19.7667 34.3933 19.7667C32.4803 19.7667 30.924 21.3229 30.924 23.2358V23.3782C30.924 25.291 32.4803 26.8473 34.3933 26.8473H35.7302L36.4773 39.525C36.2071 39.4856 35.9982 39.2546 35.9982 38.9736V37.4534C35.9982 37.2285 35.9336 37.0083 35.8122 36.819L28.3024 25.1278C28.2933 25.1137 28.2839 25.0997 28.2742 25.0859C27.1982 23.5628 26.4306 21.844 26.0144 20.0262C25.9447 19.7229 25.7573 19.4597 25.4935 19.2945C25.2297 19.1293 24.9111 19.0757 24.6078 19.1455C24.3044 19.2152 24.0412 19.4026 23.876 19.6664C23.7109 19.9302 23.6573 20.2488 23.727 20.5521C24.2092 22.6583 25.0972 24.6504 26.3412 26.417L33.6515 37.7974V38.9733C33.6515 40.1583 34.3651 41.1783 35.3845 41.6303V43.6149C35.3845 45.7031 37.0834 47.4019 39.1716 47.4019H40.9873C43.0754 47.4019 44.7744 45.7031 44.7744 43.6149V41.6303C45.7936 41.1783 46.5074 40.1584 46.5074 38.9733V37.7974L53.8176 26.417C55.8079 23.5847 56.8599 20.2528 56.8599 16.7801C56.8592 7.5275 49.3316 0 40.079 0C35.8749 0 31.853 1.56205 28.7541 4.39824C25.6752 7.21628 23.7647 11.0476 23.3745 15.1871C23.3599 15.3405 23.3758 15.4953 23.4211 15.6426C23.4664 15.7899 23.5403 15.9268 23.6386 16.0456C23.7368 16.1643 23.8575 16.2625 23.9937 16.3346C24.13 16.4067 24.2791 16.4512 24.4325 16.4656ZM44.4879 23.1697C44.505 22.8842 44.6304 22.6159 44.8386 22.4196C45.0468 22.2233 45.322 22.1139 45.608 22.1136C46.2269 22.1136 46.7303 22.6169 46.7303 23.2356V23.378C46.7303 23.9967 46.2269 24.5001 45.608 24.5001H44.4095L44.4879 23.1697ZM34.3933 24.5001C33.7745 24.5001 33.2711 23.9967 33.2711 23.378V23.2356C33.2711 22.6169 33.7745 22.1136 34.3933 22.1136C34.6794 22.1139 34.9546 22.2233 35.1628 22.4196C35.371 22.6158 35.4964 22.8842 35.5135 23.1697L35.5919 24.5001H34.3933ZM41.92 26.8471L41.1726 39.533H38.8289L38.0815 26.8471H41.92ZM42.4267 43.615C42.4267 44.409 41.7808 45.055 40.9867 45.055H39.171C38.3771 45.055 37.731 44.409 37.731 43.615V41.8801H42.4265V43.615H42.4267ZM60.6352 8.91118C60.92 8.91145 61.1952 8.80774 61.409 8.61951L63.9694 6.37134C64.2008 6.16531 64.3413 5.87615 64.3603 5.56692C64.3793 5.2577 64.2753 4.95351 64.0709 4.7207C63.8665 4.48788 63.5783 4.34533 63.2693 4.32415C62.9602 4.30296 62.6553 4.40485 62.421 4.6076L59.8605 6.85577C59.6812 7.01321 59.5541 7.22158 59.4963 7.45309C59.4384 7.68459 59.4525 7.92824 59.5367 8.15153C59.6208 8.37483 59.771 8.56716 59.9673 8.70288C60.1636 8.8386 60.3966 8.91126 60.6352 8.91118ZM59.8605 15.9888L62.421 18.2372C62.6348 18.4255 62.91 18.5292 63.1949 18.5288C63.4336 18.5289 63.6666 18.4563 63.8629 18.3206C64.0592 18.1849 64.2094 17.9925 64.2936 17.7692C64.3778 17.5459 64.3919 17.3023 64.334 17.0708C64.2762 16.8392 64.1491 16.6309 63.9698 16.4734L61.4093 14.2251C61.2935 14.1234 61.1588 14.0455 61.0129 13.9958C60.867 13.9462 60.7127 13.9258 60.5589 13.9358C60.4051 13.9458 60.2548 13.986 60.1166 14.0541C59.9783 14.1222 59.8548 14.2169 59.7532 14.3327C59.6515 14.4485 59.5735 14.5832 59.5239 14.7291C59.4742 14.875 59.4538 15.0292 59.4637 15.183C59.4737 15.3368 59.5139 15.4871 59.582 15.6254C59.65 15.7637 59.7447 15.8872 59.8605 15.9888ZM16.1884 6.37134L18.7489 8.61951C18.9626 8.8078 19.2378 8.91153 19.5226 8.91118C19.7612 8.91126 19.9942 8.8386 20.1905 8.70288C20.3868 8.56716 20.537 8.37483 20.6212 8.15153C20.7053 7.92824 20.7194 7.68459 20.6616 7.45309C20.6037 7.22158 20.4766 7.01321 20.2973 6.85577L17.7368 4.6076C17.621 4.50589 17.4863 4.428 17.3404 4.37836C17.1945 4.32873 17.0403 4.30832 16.8865 4.31832C16.7327 4.32832 16.5824 4.36852 16.4441 4.43663C16.3059 4.50473 16.1824 4.59941 16.0807 4.71525C15.8754 4.94914 15.7714 5.25502 15.7916 5.56559C15.8118 5.87616 15.9545 6.166 16.1884 6.37134ZM16.9631 18.5288C17.2479 18.5291 17.5231 18.4254 17.737 18.2372L20.2975 15.9888C20.5313 15.7835 20.6741 15.4936 20.6943 15.183C20.7144 14.8724 20.6104 14.5665 20.405 14.3327C20.1997 14.0988 19.9098 13.956 19.5992 13.9359C19.2886 13.9157 18.9828 14.0197 18.7489 14.2251L16.1884 16.4734C16.0091 16.6309 15.882 16.8392 15.8241 17.0707C15.7663 17.3022 15.7804 17.5459 15.8645 17.7692C15.9487 17.9925 16.0989 18.1848 16.2952 18.3205C16.4915 18.4562 16.7244 18.5289 16.9631 18.5288ZM29.696 40.7065C29.696 40.3953 29.5724 40.0968 29.3523 39.8767C29.1322 39.6566 28.8338 39.533 28.5225 39.533H16.9626C16.3145 39.533 15.7891 40.0583 15.7891 40.7065C15.7891 41.3548 16.3145 41.8801 16.9626 41.8801H28.5225C28.8338 41.8801 29.1322 41.7564 29.3523 41.5364C29.5724 41.3163 29.696 41.0178 29.696 40.7065ZM32.0976 45.5025H19.0825C18.4344 45.5025 17.9089 46.0278 17.9089 46.6761C17.9089 47.3243 18.4344 47.8496 19.0825 47.8496H32.0976C32.7457 47.8496 33.2711 47.3243 33.2711 46.6761C33.2711 46.0278 32.7457 45.5025 32.0976 45.5025ZM32.0976 51.2201H19.0825C18.4344 51.2201 17.9089 51.7454 17.9089 52.3937C17.9089 53.0419 18.4344 53.5672 19.0825 53.5672H32.0976C32.7457 53.5672 33.2711 53.0419 33.2711 52.3937C33.2711 51.7454 32.7457 51.2201 32.0976 51.2201ZM32.0976 56.9377H19.0825C18.4344 56.9377 17.9089 57.463 17.9089 58.1113C17.9089 58.7595 18.4344 59.2848 19.0825 59.2848H32.0976C32.7457 59.2848 33.2711 58.7595 33.2711 58.1113C33.2711 57.463 32.7457 56.9377 32.0976 56.9377ZM64.3689 40.7065C64.3689 40.3953 64.2453 40.0968 64.0252 39.8767C63.8051 39.6566 63.5066 39.533 63.1954 39.533H51.6355C50.9874 39.533 50.4619 40.0583 50.4619 40.7065C50.4619 41.3548 50.9874 41.8801 51.6355 41.8801H63.1954C63.5066 41.8801 63.8051 41.7564 64.0252 41.5364C64.2453 41.3163 64.3689 41.0178 64.3689 40.7065ZM61.0754 45.5025H48.0603C47.4122 45.5025 46.8867 46.0278 46.8867 46.6761C46.8867 47.3243 47.4122 47.8496 48.0603 47.8496H61.0754C61.7235 47.8496 62.2489 47.3243 62.2489 46.6761C62.2489 46.0278 61.7235 45.5025 61.0754 45.5025ZM61.0754 51.2201H48.0603C47.4122 51.2201 46.8867 51.7454 46.8867 52.3937C46.8867 53.0419 47.4122 53.5672 48.0603 53.5672H61.0754C61.7235 53.5672 62.2489 53.0419 62.2489 52.3937C62.2489 51.7454 61.7235 51.2201 61.0754 51.2201ZM61.0754 56.9377H48.0603C47.4122 56.9377 46.8867 57.463 46.8867 58.1113C46.8867 58.7595 47.4122 59.2848 48.0603 59.2848H61.0754C61.7235 59.2848 62.2489 58.7595 62.2489 58.1113C62.2489 57.463 61.7235 56.9377 61.0754 56.9377Z" fill="#5A5A5A"/>
    </g>
    <defs>
    <clipPath id="clip0_10_2424">
    <rect width="80" height="80" fill="white"/>
    </clipPath>
    </defs>
    </svg>
    