<svg width="80" height="80" viewBox="0 0 80 80" fill="none" xmlns="http://www.w3.org/2000/svg">
    <g clip-path="url(#clip0_10_2414)">
    <path d="M74.5442 68.8284C77.5525 68.8284 80 66.3809 80 63.3725V7.8125C80 3.50469 76.4953 0 72.1875 0H7.8125C3.50469 0 0 3.50469 0 7.8125V63.3725C0 66.3809 2.4475 68.8284 5.45578 68.8284H7.1875V76.875H1.5625C0.699531 76.875 0 77.5747 0 78.4375C0 79.3003 0.699531 80 1.5625 80H78.4375C79.3005 80 80 79.3003 80 78.4375C80 77.5747 79.3005 76.875 78.4375 76.875H72.8125V68.8284H74.5442ZM3.125 7.8125C3.125 5.22781 5.22781 3.125 7.8125 3.125H72.1875C74.7722 3.125 76.875 5.22781 76.875 7.8125V11.25H3.28187C3.22891 11.25 3.17656 11.2528 3.125 11.258V7.8125ZM17.1875 76.875H10.3125V62.8125H17.1875V76.875ZM34.6875 76.875H27.8125V45.5363H34.6875V76.875ZM52.1875 76.875H45.3125V58.75H52.1875V76.875ZM71.25 40.0781H61.25C60.387 40.0781 59.6875 40.7778 59.6875 41.6406V49.5311C59.6875 50.3939 60.387 51.0936 61.25 51.0936C62.113 51.0936 62.8125 50.3939 62.8125 49.5311V43.2031H69.6875V76.875H62.8125V60.0391C62.8125 59.1763 62.113 58.4766 61.25 58.4766C60.387 58.4766 59.6875 59.1763 59.6875 60.0391V76.875H55.3125V57.1875C55.3125 56.3247 54.613 55.625 53.75 55.625H43.75C42.887 55.625 42.1875 56.3247 42.1875 57.1875V76.875H37.8125V43.9738C37.8125 43.1109 37.113 42.4113 36.25 42.4113H26.25C25.387 42.4113 24.6875 43.1109 24.6875 43.9738V76.875H20.3125V61.25C20.3125 60.3872 19.613 59.6875 18.75 59.6875H8.75C7.88703 59.6875 7.1875 60.3872 7.1875 61.25V65.7034H5.45578C4.17047 65.7034 3.125 64.6578 3.125 63.3725V14.367C3.17656 14.3722 3.22891 14.375 3.28187 14.375H76.875V63.3725C76.875 64.6578 75.8294 65.7034 74.5442 65.7034H72.8125V41.6406C72.8125 40.7778 72.113 40.0781 71.25 40.0781Z" fill="#5A5A5A"/>
    <path d="M70 5.625H34.6977C33.8347 5.625 33.1352 6.32469 33.1352 7.1875C33.1352 8.05031 33.8347 8.75 34.6977 8.75H70C70.863 8.75 71.5625 8.05031 71.5625 7.1875C71.5625 6.32469 70.863 5.625 70 5.625ZM17.3547 6.08281C17.0641 5.79219 16.6609 5.625 16.25 5.625C15.8391 5.625 15.4359 5.79203 15.1453 6.08281C14.8547 6.37344 14.6875 6.77656 14.6875 7.1875C14.6875 7.59844 14.8547 8.00156 15.1453 8.29203C15.4359 8.58281 15.8391 8.75 16.25 8.75C16.6609 8.75 17.0641 8.58281 17.3547 8.29203C17.6453 8.00156 17.8125 7.59844 17.8125 7.1875C17.8125 6.77656 17.6453 6.37344 17.3547 6.08281ZM11.1047 6.08281C10.8141 5.79219 10.4109 5.625 10 5.625C9.58906 5.625 9.18594 5.79203 8.89531 6.08281C8.60469 6.37344 8.4375 6.77656 8.4375 7.1875C8.4375 7.59844 8.60469 8.00156 8.89531 8.29203C9.18594 8.58281 9.58906 8.75 10 8.75C10.4109 8.75 10.8141 8.58281 11.1047 8.29203C11.3953 8.00156 11.5625 7.59844 11.5625 7.1875C11.5625 6.77656 11.3953 6.37344 11.1047 6.08281ZM23.6047 6.08281C23.3112 5.79061 22.9142 5.62608 22.5 5.625C22.0891 5.625 21.6859 5.79203 21.3953 6.08281C21.1047 6.37344 20.9375 6.77656 20.9375 7.1875C20.9375 7.59844 21.1047 8.00156 21.3953 8.29203C21.6859 8.58281 22.0891 8.75 22.5 8.75C22.9109 8.75 23.3141 8.58281 23.6047 8.29203C23.8953 8.00156 24.0625 7.59844 24.0625 7.1875C24.0625 6.77656 23.8953 6.37344 23.6047 6.08281ZM62.3547 53.9953C62.0641 53.7031 61.6609 53.5375 61.25 53.5375C60.8391 53.5375 60.4359 53.7033 60.1453 53.9953C59.8547 54.2859 59.6875 54.6891 59.6875 55.1C59.6875 55.5109 59.8547 55.9141 60.1453 56.2047C60.4359 56.4952 60.8391 56.6625 61.25 56.6625C61.6609 56.6625 62.0641 56.4953 62.3547 56.2047C62.6453 55.9141 62.8125 55.5109 62.8125 55.1C62.8125 54.6875 62.6453 54.2859 62.3547 53.9953ZM66.25 21.2405C63.1483 21.2405 60.625 23.7637 60.625 26.8655C60.624 28.0514 61 29.2069 61.6986 30.1652L51.3197 40.5441C50.4889 40.0837 49.5546 39.8426 48.6048 39.8436C47.7476 39.8428 46.9016 40.0392 46.1323 40.4177L35.295 29.5803C35.7553 28.7496 35.9964 27.8152 35.9955 26.8655C35.9955 23.7637 33.4722 21.2405 30.3705 21.2405C27.2688 21.2405 24.7455 23.7637 24.7455 26.8655C24.7455 27.9495 25.0545 28.9623 25.588 29.822L16.3609 39.0489C15.5302 38.5886 14.596 38.3475 13.6462 38.3484C10.5445 38.3484 8.02125 40.8717 8.02125 43.9734C8.02125 47.0751 10.5445 49.5984 13.6462 49.5984C16.748 49.5984 19.2712 47.0751 19.2712 43.9734C19.2712 42.9894 19.0166 42.0641 18.5708 41.2586L27.908 31.9214C28.6746 32.2965 29.517 32.4911 30.3705 32.4903C31.3544 32.4903 32.2797 32.2356 33.0852 31.7898L43.8164 42.5209C43.2685 43.4063 42.9788 44.4271 42.9798 45.4683C42.9798 48.57 45.5031 51.0933 48.6048 51.0933C51.7066 51.0933 54.2298 48.57 54.2298 45.4683C54.2298 44.4842 53.9752 43.5589 53.5294 42.7534L64.1864 32.0964C64.8432 32.357 65.5434 32.4908 66.25 32.4905C69.3517 32.4905 71.875 29.9672 71.875 26.8655C71.875 23.7637 69.3517 21.2405 66.25 21.2405ZM13.6464 46.4737C12.268 46.4737 11.1464 45.3522 11.1464 43.9737C11.1464 42.5953 12.268 41.4737 13.6464 41.4737C15.0248 41.4737 16.1464 42.5953 16.1464 43.9737C16.1464 45.3522 15.0248 46.4737 13.6464 46.4737ZM30.3706 29.3655C28.9922 29.3655 27.8706 28.2439 27.8706 26.8655C27.8706 25.487 28.9922 24.3655 30.3706 24.3655C31.7491 24.3655 32.8706 25.487 32.8706 26.8655C32.8706 28.2439 31.7491 29.3655 30.3706 29.3655ZM48.605 47.9686C47.2266 47.9686 46.105 46.847 46.105 45.4686C46.105 44.0902 47.2266 42.9686 48.605 42.9686C49.9834 42.9686 51.105 44.0902 51.105 45.4686C51.105 46.847 49.9834 47.9686 48.605 47.9686ZM66.25 29.3655C64.8716 29.3655 63.75 28.2439 63.75 26.8655C63.75 25.487 64.8716 24.3655 66.25 24.3655C67.6284 24.3655 68.75 25.487 68.75 26.8655C68.75 28.2439 67.6284 29.3655 66.25 29.3655ZM23.1766 20.1486C22.8827 19.8568 22.4859 19.6923 22.0719 19.6906C21.6594 19.6906 21.2562 19.8578 20.9656 20.1486C20.675 20.4391 20.5094 20.8422 20.5094 21.2531C20.5094 21.6641 20.675 22.0672 20.9656 22.3578C21.2599 22.6498 21.6573 22.8142 22.0719 22.8156C22.4828 22.8156 22.8844 22.6486 23.1766 22.3578C23.4672 22.0672 23.6344 21.6641 23.6344 21.2531C23.6344 20.8422 23.4672 20.4391 23.1766 20.1486ZM16.25 19.6908H8.75C7.88703 19.6908 7.1875 20.3905 7.1875 21.2533C7.1875 22.1161 7.88703 22.8158 8.75 22.8158H16.25C17.113 22.8158 17.8125 22.1161 17.8125 21.2533C17.8125 20.3905 17.113 19.6908 16.25 19.6908ZM16.25 27.1908H8.75C7.88703 27.1908 7.1875 27.8905 7.1875 28.7533C7.1875 29.6161 7.88703 30.3158 8.75 30.3158H16.25C17.113 30.3158 17.8125 29.6161 17.8125 28.7533C17.8125 27.8905 17.113 27.1908 16.25 27.1908Z" fill="#5A5A5A"/>
    </g>
    <defs>
    <clipPath id="clip0_10_2414">
    <rect width="80" height="80" fill="white"/>
    </clipPath>
    </defs>
    </svg>
    