<svg width="80" height="80" viewBox="0 0 80 80" fill="none" xmlns="http://www.w3.org/2000/svg">
    <path d="M22.2534 15.9162C19.8132 16.8379 18.0648 19.1784 18.0648 21.9367C18.0648 22.999 18.3479 23.9875 18.8046 24.8726C16.8692 25.6166 15.4844 27.4829 15.4844 29.6785C15.4844 31.8748 16.8692 33.7402 18.8046 34.4849C18.3479 35.3702 18.065 36.3587 18.065 37.4203C18.065 40.1791 19.8133 42.5197 22.2534 43.4408C22.0599 43.9813 21.9357 44.556 21.9357 45.1621C21.9357 48.0085 24.2505 50.3233 27.0969 50.3233C27.7396 50.3233 28.349 50.1904 28.9166 49.976C29.7527 51.7018 31.506 52.9039 33.5486 52.9039C36.395 52.9039 38.7098 50.5891 38.7098 47.7427V11.6143C38.7098 8.76841 36.395 6.45312 33.5486 6.45312C31.506 6.45312 29.7527 7.65585 28.9166 9.38081C28.3488 9.16662 27.7396 9.03372 27.0971 9.03372C24.2505 9.03372 21.9359 11.349 21.9359 14.1949C21.9359 14.8017 22.0601 15.3755 22.2534 15.9162ZM27.0969 11.6143C28.5203 11.6143 29.6775 12.7717 29.6775 14.1949H32.2581C32.2581 12.9549 31.8002 11.8298 31.0688 10.9395C31.368 9.8458 32.3604 9.03372 33.5486 9.03372C34.9718 9.03372 36.1292 10.1911 36.1292 11.6143V47.7427C36.1292 49.1659 34.9718 50.3233 33.5486 50.3233C32.3604 50.3233 31.368 49.5119 31.0688 48.4174C31.8002 47.5271 32.2583 46.4026 32.2583 45.1621H29.6777C29.6777 46.5853 28.5203 47.7427 27.0971 47.7427C25.6739 47.7427 24.5165 46.5853 24.5165 45.1621C24.5165 43.7389 25.6739 42.5815 27.0971 42.5815V40.0009C25.8402 40.0009 24.7023 40.4709 23.807 41.2194C22.0109 40.8848 20.6456 39.3122 20.6456 37.4203C20.6456 35.2865 22.3826 33.5494 24.5165 33.5494C26.6509 33.5494 28.3874 35.2865 28.3874 37.4203H30.968C30.968 33.8631 28.0743 30.9688 24.5165 30.9688C23.0584 30.9688 21.7267 31.4735 20.6456 32.293V32.2591C19.2224 32.2591 18.065 31.1017 18.065 29.6785C18.065 28.2553 19.2224 27.0979 20.6456 27.0979V27.0645C21.7267 27.8842 23.0584 28.3882 24.5165 28.3882C28.0743 28.3882 30.968 25.4944 30.968 21.9367H28.3874C28.3874 24.0712 26.6509 25.8076 24.5165 25.8076C22.3826 25.8076 20.6456 24.0712 20.6456 21.9367C20.6456 20.0453 22.0109 18.4727 23.807 18.1382C24.7023 18.8866 25.8402 19.356 27.0971 19.356V16.7754C25.6739 16.7754 24.5165 15.6181 24.5165 14.1948C24.5165 12.7717 25.6739 11.6142 27.0971 11.6142L27.0969 11.6143ZM52.903 9.03372C52.2605 9.03372 51.6518 9.16662 51.0842 9.38081C50.2474 7.65585 48.4941 6.45312 46.4516 6.45312C43.605 6.45312 41.2904 8.76841 41.2904 11.6143V47.7427C41.2904 50.5891 43.605 52.9039 46.4516 52.9039C48.4941 52.9039 50.2474 51.7018 51.0842 49.976C51.6519 50.1904 52.2605 50.3233 52.903 50.3233C55.7494 50.3233 58.0642 48.0085 58.0642 45.1621C58.0642 44.556 57.9407 43.9815 57.7467 43.4408C60.1869 42.5197 61.9351 40.1791 61.9351 37.4203C61.9351 36.3587 61.6529 35.3702 61.1961 34.4849C63.1316 33.7402 64.5157 31.8748 64.5157 29.6785C64.5157 27.4829 63.1316 25.6166 61.1961 24.8726C61.6529 23.9875 61.9351 22.999 61.9351 21.9367C61.9351 19.1784 60.1868 16.8379 57.7467 15.9162C57.9407 15.3755 58.0642 14.8017 58.0642 14.1949C58.0642 11.349 55.7494 9.03372 52.903 9.03372ZM59.3545 21.9367C59.3545 24.0712 57.6181 25.8076 55.4836 25.8076C53.3498 25.8076 51.6127 24.0712 51.6127 21.9367H49.0322C49.0322 25.4944 51.9265 28.3882 55.4836 28.3882C56.9415 28.3882 58.2734 27.8842 59.3545 27.0645V27.0979C60.7777 27.0979 61.9351 28.2553 61.9351 29.6785C61.9351 31.1017 60.7777 32.2591 59.3545 32.2591V32.293C58.2734 31.4735 56.9415 30.9688 55.4836 30.9688C51.9265 30.9688 49.0322 33.8631 49.0322 37.4203H51.6127C51.6127 35.2865 53.3498 33.5494 55.4836 33.5494C57.6181 33.5494 59.3545 35.2865 59.3545 37.4203C59.3545 39.3122 57.9892 40.8848 56.1936 41.2193C55.2978 40.4709 54.1598 40.0009 52.903 40.0009V42.5815C54.3262 42.5815 55.4836 43.7389 55.4836 45.1621C55.4836 46.5853 54.3262 47.7427 52.903 47.7427C51.4798 47.7427 50.3224 46.5853 50.3224 45.1621H47.7419C47.7419 46.4026 48.1999 47.5272 48.9313 48.4174C48.632 49.5119 47.6398 50.3233 46.4516 50.3233C45.0284 50.3233 43.871 49.1659 43.871 47.7427V11.6143C43.871 10.1911 45.0284 9.03372 46.4516 9.03372C47.6398 9.03372 48.6322 9.8458 48.9313 10.9395C48.1999 11.8298 47.7419 12.9549 47.7419 14.1949H50.3224C50.3224 12.7717 51.4798 11.6143 52.903 11.6143C54.3262 11.6143 55.4836 12.7717 55.4836 14.1949C55.4836 15.6181 54.3262 16.7755 52.903 16.7755V19.3561C54.16 19.3561 55.2978 18.8868 56.1936 18.1382C57.9892 18.4727 59.3545 20.0455 59.3545 21.9367Z" fill="#5A5A5A"/>
    <path d="M60.3186 8.04785C54.2893 2.38085 46.3926 -0.460548 38.1051 0.0608938L38.2651 2.63601C45.8376 2.16537 53.045 4.75468 58.552 9.92781C64.0616 15.1055 67.0965 22.1208 67.0965 29.6781C67.0965 38.7852 62.5571 47.23 54.9532 52.269C52.3307 54.0078 50.3459 56.4883 49.123 59.355H30.824C29.5842 56.4674 27.5919 53.9696 24.9647 52.2148C17.1284 46.9775 12.6256 38.2307 12.9186 28.8136L10.3393 28.7336C10.0179 39.046 14.9505 48.6261 23.5315 54.3594C25.4266 55.6265 26.9398 57.3513 27.9945 59.355H24.5168V61.9356H29.024C29.2742 62.7715 29.4745 63.6284 29.5759 64.5162H27.0974V67.0968H29.678V70.9677C29.678 71.6815 30.2564 72.258 30.9683 72.258H32.2586C32.2586 76.5276 35.7307 79.9998 40.0004 79.9998C44.2702 79.9998 47.7422 76.5276 47.7422 72.258H49.0325C49.7451 72.258 50.3228 71.6815 50.3228 70.9677V67.0968H52.9034V64.5162H50.4134C50.5049 63.6297 50.687 62.7704 50.932 61.9356H55.484V59.355H51.9502C52.9897 57.3736 54.4942 55.6699 56.38 54.4212C64.7056 48.8997 69.6773 39.6508 69.6773 29.6781C69.6773 21.5211 66.2656 13.6363 60.3186 8.04785ZM40.0003 77.4192C37.1537 77.4192 34.8391 75.1044 34.8391 72.258H45.1614C45.1614 75.1044 42.8467 77.4192 40.0003 77.4192ZM47.742 69.6774H32.2585V67.0968H47.742V69.6774ZM47.834 64.5162H32.1552C32.0688 63.638 31.9294 62.7748 31.7178 61.9356H48.2353C48.0299 62.7735 47.9109 63.6404 47.834 64.5162ZM9.03307 9.03331C11.8795 9.03331 14.1943 11.3486 14.1943 14.1945C14.1943 14.9084 14.7726 15.4848 15.4846 15.4848C16.1971 15.4848 16.7749 14.9084 16.7749 14.1945C16.7749 11.3486 19.0895 9.03331 21.9361 9.03331C22.6486 9.03331 23.2264 8.45687 23.2264 7.74301C23.2264 7.0298 22.6486 6.45271 21.9361 6.45271C19.0895 6.45271 16.7749 4.13792 16.7749 1.29152C16.7749 0.949308 16.6389 0.621115 16.3969 0.379137C16.155 0.137159 15.8268 0.0012175 15.4846 0.0012175C15.1424 0.0012175 14.8142 0.137159 14.5722 0.379137C14.3302 0.621115 14.1943 0.949308 14.1943 1.29152C14.1943 4.13792 11.8795 6.45271 9.03307 6.45271C8.69086 6.45271 8.36267 6.58866 8.12069 6.83063C7.87871 7.07261 7.74277 7.4008 7.74277 7.74301C7.74277 8.45687 8.32115 9.03331 9.03307 9.03331ZM15.4846 5.56628C16.0585 6.4291 16.7985 7.16905 17.6613 7.74301C16.7986 8.31714 16.0587 9.05707 15.4846 9.91975C14.9106 9.05692 14.1707 8.31697 13.3078 7.74301C14.1708 7.16923 14.9108 6.42924 15.4846 5.56628ZM14.1943 21.9363C14.9068 21.9363 15.4846 21.3599 15.4846 20.646C15.4846 19.9328 14.9068 19.3557 14.1943 19.3557C11.3477 19.3557 9.03307 17.0409 9.03307 14.1945C9.03307 13.8523 8.89713 13.5241 8.65515 13.2821C8.41317 13.0402 8.08498 12.9042 7.74277 12.9042C7.40056 12.9042 7.07237 13.0402 6.83039 13.2821C6.58841 13.5241 6.45247 13.8523 6.45247 14.1945C6.45247 17.0409 4.13768 19.3557 1.29128 19.3557C0.949067 19.3557 0.620874 19.4916 0.378896 19.7336C0.136918 19.9756 0.000976563 20.3038 0.000976562 20.646C0.000976563 21.3599 0.579353 21.9363 1.29128 21.9363C4.13768 21.9363 6.45247 24.2516 6.45247 27.0975C6.45247 27.8114 7.03085 28.3878 7.74277 28.3878C8.45534 28.3878 9.03307 27.8114 9.03307 27.0975C9.03307 24.2516 11.3477 21.9363 14.1943 21.9363ZM7.74277 22.8227C7.16881 21.9599 6.42886 21.22 5.56604 20.646C6.42872 20.0719 7.16864 19.332 7.74277 18.4693C8.31708 19.3318 9.05697 20.0717 9.91951 20.646C9.05682 21.2201 8.3169 21.9601 7.74277 22.8227Z" fill="#5A5A5A"/>
    </svg>
    