<svg width="80" height="80" viewBox="0 0 80 80" fill="none" xmlns="http://www.w3.org/2000/svg">
    <g clip-path="url(#clip0_10_2394)">
    <path d="M37.6671 33.385V35.2677M57.2616 33.385V35.2677M44.8821 35.2111C46.246 36.7797 48.6804 36.7802 50.0482 35.2111M16.4897 43.9745C16.3737 41.0706 16.7204 38.2797 17.464 35.7383C21.1616 23.1281 33.5035 19.2595 43.0451 27.6135C44.5621 28.9422 46.8463 28.9422 48.3633 27.6135C52.2383 24.2295 57.2068 22.3705 62.2708 23.5205C63.6635 23.8367 64.9981 24.3693 66.2258 25.0988M70.3438 28.6974C73.4516 32.5378 75.1569 38.0208 74.9169 43.9824M28.8426 65.6367C33.3144 68.0103 37.9997 68.0555 41.9296 66.1655C44.311 65.0266 47.0988 65.0266 49.4787 66.1655C50.3962 66.606 51.3602 66.9423 52.3527 67.168C59.8705 68.8764 67.6801 63.9958 71.8688 55.7408M24.4201 62.4049C22.5187 60.5803 20.851 58.326 19.5394 55.7405" stroke="#5A5A5A" stroke-width="3" stroke-miterlimit="10" stroke-linecap="round" stroke-linejoin="round"/>
    <path d="M41.8073 26.6127C41.7541 21.4377 43.5419 16.6924 47.4048 13.339C49.1008 11.869 51.7238 12.3757 52.7452 14.3729C53.4652 15.7777 53.1369 17.5046 51.9309 18.5522C50.1989 20.0568 49.1777 22.0444 48.8325 24.5686C48.6959 25.568 48.6897 26.5108 48.7369 27.2968M22.1328 27.5038H12.2713C6.14188 27.5038 1.17188 32.4738 1.17188 38.6032V44.6432C1.17188 50.7726 6.14188 55.7425 12.2713 55.7425H74.6583C76.9612 55.7425 78.8281 53.8757 78.8281 51.5727V48.1465C78.8281 45.8454 76.9639 43.9766 74.6583 43.9766H13.5264C11.2538 43.9766 9.40828 42.1333 9.40828 39.8585C9.40828 37.5836 11.2516 35.7404 13.5264 35.7404H17.4641M70.5919 47.5061V43.9763M63.5322 48.6827V43.9763M56.4725 47.5061V43.9763M49.4128 48.6827V43.9763M42.3533 47.5061V43.9763M35.2936 48.6827V43.9763M28.2339 47.5061V43.9763M21.1742 48.6827V43.9763M14.1145 47.5061V43.9763" stroke="#5A5A5A" stroke-width="3" stroke-miterlimit="10" stroke-linecap="round" stroke-linejoin="round"/>
    </g>
    <defs>
    <clipPath id="clip0_10_2394">
    <rect width="80" height="80" fill="white"/>
    </clipPath>
    </defs>
    </svg>
    