<svg width="30" height="30" viewBox="0 0 30 30" fill="none" xmlns="http://www.w3.org/2000/svg">
    <path d="M30 15C30 23.2843 23.2843 30 15 30C6.71573 30 0 23.2843 0 15C0 6.71573 6.71573 0 15 0C23.2843 0 30 6.71573 30 15Z" fill="#198FFF"/>
    <g clip-path="url(#clip0_10_2781)">
    <path d="M21.7466 21.75L21.75 21.7494V16.7983C21.75 14.3762 21.2286 12.5104 18.3969 12.5104C17.0357 12.5104 16.1222 13.2574 15.7492 13.9656H15.7099V12.7365H13.0251V21.7494H15.8207V17.2866C15.8207 16.1115 16.0434 14.9753 17.4986 14.9753C18.9324 14.9753 18.9538 16.3162 18.9538 17.3619V21.75H21.7466ZM8.47275 12.7371H11.2718V21.75H8.47275V12.7371ZM9.87112 8.25C8.97619 8.25 8.25 8.97619 8.25 9.87112C8.25 10.7661 8.97619 11.5074 9.87112 11.5074C10.7661 11.5074 11.4922 10.7661 11.4922 9.87112C11.492 9.44127 11.3211 9.0291 11.0171 8.72515C10.7131 8.42119 10.301 8.2503 9.87112 8.25Z" fill="white"/>
    </g>
    <defs>
    <clipPath id="clip0_10_2781">
    <rect width="13.5" height="13.5" fill="white" transform="translate(8.25 8.25)"/>
    </clipPath>
    </defs>
    </svg>
    