<svg width="143" height="290" viewBox="0 0 143 290" fill="none" xmlns="http://www.w3.org/2000/svg">
    <g clip-path="url(#clip0_10_2646)">
    <path d="M73.2459 136.369C70.4582 153.387 69.5949 168.565 69.5863 174.011C69.5417 202.372 73.1353 218.284 74.5536 226.55C76.1037 235.593 90.2357 227.596 90.2357 227.596C90.2357 227.596 97.9588 141.477 95.6729 135.164C93.387 128.85 74.4047 129.291 73.2459 136.369Z" fill="#F3A187"/>
    <path d="M74.8135 227.243C74.8135 227.243 75.5109 238.221 81.805 280.281C82.6662 286.033 88.3075 279.977 88.3075 279.977C88.3075 279.977 92.5858 237.267 90.4956 224.98C89.4792 219.005 74.8135 227.243 74.8135 227.243Z" fill="#F3A187"/>
    <path d="M84.9674 12.7117C87.6062 7.45743 91.5528 7.60416 96.6646 6.93434C100.501 6.43039 104.158 5.8754 107.622 8.32925C109.829 9.89428 108.7 12.2907 109.31 14.4809C109.674 15.7801 110.835 16.7157 111.241 17.9533C111.628 19.1334 111.571 21.2067 111.275 22.3528C110.911 23.7562 109.738 24.2453 109.185 25.4892C108.558 26.9011 109.189 28.43 109.329 29.8079C109.616 32.6743 108.27 35.3174 105.999 36.9079C104.673 37.8372 103.967 38.5708 102.872 39.7403C99.8414 42.9766 96.5264 40.325 92.9966 39.7934C89.5582 39.2746 87.0597 37.1716 85.3395 34.1245C82.9941 29.9738 82.639 24.9725 83.0834 20.2264C83.3237 17.6386 83.8 15.0338 84.9674 12.7117Z" fill="#1D3650"/>
    <path d="M47.6696 116.297C49.9619 117.101 52.3264 113.42 53.2642 109.86C53.9063 107.426 51.7225 105.961 52.6007 107.166C44.4694 96.0048 31.7706 92.4644 23.1184 86.94C14.6128 81.5071 17.9746 89.5193 17.9746 89.5193C25.2958 98.0866 33.3399 107.03 47.6696 116.297Z" fill="#F3A187"/>
    <path d="M46.8679 110.417C45.9982 110.485 41.5817 109.794 42.0836 106.432C44.2291 92.0193 50.6997 85.6784 53.043 76.0714C56.0794 63.615 66.9687 55.1945 75.0766 55.9748C78.3938 56.2938 74.0283 76.1436 66.0139 89.5803C64.3086 92.4382 60.6108 101.779 51.7905 113.732C51.7884 113.734 46.8701 110.415 46.8679 110.417Z" fill="#F3A187"/>
    <path d="M116.057 139.104L72.1977 143.164C71.781 126.406 67.7472 81.7514 67.2305 76.7714C66.7074 71.7169 63.6603 59.9516 69.7588 56.6408C72.4486 55.1821 81.6495 52.7772 84.3926 52.4242C89.1855 51.8054 93.6636 51.6438 98.3353 51.9585C100.704 52.118 107.643 54.4911 110.188 55.248C118.379 57.687 118.389 63.1625 118.9 65.3548C120.367 71.634 115.565 121.647 116.057 139.104Z" fill="#F3A187"/>
    <path d="M115.33 132.972C121.079 167.477 121.603 204.331 121.603 220.277C121.603 229.452 106.441 228.468 106.441 228.468C106.441 228.468 89.1815 143.636 90.9336 137.152C92.6836 130.671 114.15 125.895 115.33 132.972Z" fill="#F3A187"/>
    <path d="M121.428 219.404C121.428 219.404 121.779 235.088 120.688 279.087C120.544 284.901 114.545 279.61 114.545 279.61C114.545 279.61 105.92 229.859 104.874 220.099C104.228 214.075 121.428 219.404 121.428 219.404Z" fill="#F3A187"/>
    <path d="M72.1125 139.245C70.1456 153.362 68.6359 173.233 68.6274 177.931C68.5848 206.292 71.9148 217.586 73.3331 225.853C74.8832 234.896 91.1075 226.55 91.1075 226.55C91.1075 226.55 97.0317 166.431 95.6389 139.419L72.1125 139.245Z" fill="#BCBFC4"/>
    <path d="M88.7451 275.342C89.7786 263.947 92.4259 233.214 90.7588 223.411C89.7424 217.436 73.3331 225.502 73.3331 225.502C73.3331 225.502 74.3793 250.421 81.071 275.34H88.7451V275.342Z" fill="#BCBFC4"/>
    <path d="M91.1075 139.593C92.5003 164.861 105.92 229.512 105.92 229.512C105.92 229.512 120.917 229.425 121.604 220.277C123.173 199.366 122.65 173.75 116.375 139.072L91.1075 139.593Z" fill="#BCBFC4"/>
    <path d="M116.373 139.07L95.6411 139.5C95.639 139.474 95.639 139.447 95.6368 139.419L72.1105 139.245C71.5257 143.449 70.9814 148.165 70.5029 152.837H92.4047H95.8218H118.636C117.983 148.409 117.237 143.827 116.373 139.07Z" fill="#A2A5AA"/>
    <path d="M113.239 275.342H120.779C122.474 234.739 121.951 215.397 121.951 215.397C121.951 215.397 104.227 214.077 104.874 220.103C105.733 228.115 109.356 262.796 113.239 275.342Z" fill="#BCBFC4"/>
    <path d="M106.424 33.4121C105.431 35.4131 101.606 37.4161 101.323 35.3982C101.148 34.1628 101.387 31.6132 102.38 29.6123C103.373 27.6092 103.092 27.2435 104.918 28.1493C106.743 29.053 107.417 31.4112 106.424 33.4121Z" fill="#F3A187"/>
    <path d="M98.1526 37.9201C99.6028 34.082 85.8791 38.8685 85.8791 38.8685L84.4523 52.5263C84.4523 52.5263 89.2366 57.6742 99.1222 52.5475C99.4178 52.3944 97.6125 39.3533 98.1526 37.9201Z" fill="#F3A187"/>
    <path d="M97.1748 37.6946C97.9084 38.3836 98.5676 43.9653 98.8291 48.5392C93.8491 48.3372 84.5186 51.8053 84.5186 51.8053L85.5966 38.7365C85.5966 38.7365 94.1851 34.8835 97.1748 37.6946Z" fill="#DB927B"/>
    <path d="M83.5845 46.7659C88.4752 46.7659 98.2693 45.4581 99.7939 41.8518C101.818 37.061 101.225 37.9222 102.324 34.4052C103.251 31.441 103.919 28.3939 104.319 25.3148C104.519 23.7753 104.651 22.2252 104.717 20.6729C104.78 19.1441 104.534 18.47 103.743 17.1835C101.074 12.8542 96.2407 11.4529 91.2692 10.7129C88.6453 10.3217 85.8342 10.7959 83.3378 11.7315C81.1668 12.5459 79.5379 13.3497 78.6683 15.627C77.7582 18.0128 77.3414 20.5517 77.0352 23.0758C76.4993 27.5199 75.9635 32.215 76.8523 36.6953C77.1713 38.3092 77.8432 46.7659 83.5845 46.7659Z" fill="#F3A187"/>
    <path d="M83.5845 46.7654C88.4752 46.7654 98.2694 45.4577 99.794 41.8513C101.818 37.0606 101.225 37.9218 102.324 34.4047C103.251 31.4405 103.919 28.3934 104.319 25.3144C104.519 23.7749 104.651 22.2248 104.717 20.6725C104.78 19.1436 104.534 18.4696 103.743 17.1831C101.074 12.8538 96.2408 11.4525 91.2693 10.7125C88.6453 10.3212 85.409 8.05027 82.9147 8.98588C80.7415 9.80028 79.7485 9.36437 78.8788 11.6439C77.9687 14.0297 76.6823 18.6376 76.3782 21.1616C75.8402 25.6057 75.9635 32.2167 76.8524 36.697C77.1713 38.3088 77.8433 46.7654 83.5845 46.7654Z" fill="#F3A187"/>
    <path d="M79.8385 11.0449C82.3519 11.6233 79.4451 14.1919 77.3761 20.1905C77.172 20.7795 76.3746 23.7267 76.0557 24.2498C76.0578 21.8236 76.0791 18.4787 76.6596 16.1142C77.2422 13.7454 77.9481 11.0683 80.0044 9.9902C80.2042 9.88601 80.4998 11.013 79.8385 11.0449Z" fill="#1D3650"/>
    <path d="M133.581 142.964C133.547 142.791 131.507 144.813 131.403 144.986C130.357 146.734 130.178 149.166 129.721 151.129C129.653 151.416 129.587 151.703 129.566 151.996C129.536 152.43 129.653 152.93 130.038 153.132C130.489 153.37 131.046 153.068 131.373 152.679C131.571 152.445 131.724 152.175 131.828 151.886C132.028 151.327 132.02 150.74 132.126 150.163C132.249 149.489 132.585 149.153 132.832 148.581C133.364 147.335 133.478 145.607 133.593 144.256C133.64 143.703 133.64 143.263 133.581 142.964Z" fill="#F3A187"/>
    <path d="M141.922 106.579C140.253 105.418 134.818 102.788 132.423 104.604C130.42 106.124 130.142 106.834 130.142 106.832C129.287 120.615 131.379 134.781 132.409 144.994C133.419 155.037 137.444 146.064 137.444 146.064C139.63 135.009 142.598 124.766 141.922 106.579Z" fill="#F3A187"/>
    <path d="M137.707 143.611C138.228 145.533 138.239 147.527 138.654 149.458C139.179 151.893 138.53 154.54 138.099 156.977C137.999 157.538 137.873 158.134 137.465 158.531C136.921 159.059 136.07 159.054 135.317 158.999C134.603 158.948 133.891 158.878 133.18 158.793C132.815 158.748 132.411 158.68 132.181 158.391C131.919 158.059 131.994 157.585 132.068 157.168C132.689 153.698 131.79 150.349 131.968 146.875C132.058 145.11 133.546 142.688 133.92 142.624C134.295 142.56 137.707 143.611 137.707 143.611Z" fill="#F3A187"/>
    <path d="M102.197 24.2262C101.839 21.5469 101.616 18.8017 98.6861 18.0915C95.4582 17.3111 92.6556 18.5019 89.4512 18.6529C85.7151 18.8294 83.4547 15.559 79.9058 15.8652C77.4838 16.0736 72.3486 18.0873 72.3741 13.4262C72.3826 11.7698 73.5458 11.2212 74.8046 10.4195C75.3617 10.0665 76.7715 9.46901 77.0883 8.90127C77.5668 8.04221 77.0756 8.04858 77.0713 7.15338C77.0607 5.2056 77.0288 3.94253 78.8235 2.79215C80.2014 1.9097 81.5155 1.89269 83.0061 2.09895C84.3223 2.28182 86.1106 2.82617 87.4013 2.32009C88.7005 1.81189 89.2789 0.58496 90.6738 0.183073C94.2355 -0.848226 95.4306 2.79853 98.5159 3.14513C99.9598 3.30674 101.365 2.93037 102.694 3.53214C103.877 4.06799 104.725 6.02639 105.42 6.21351C106.084 8.0337 107.149 10.1792 107.513 12.0526C107.868 13.8855 106.939 15.3612 106.556 17.09C106.024 19.4928 106.137 21.9807 105.765 24.4069C105.607 25.4382 105.35 26.4844 104.744 27.3328C104.138 28.1812 103.12 28.8 102.084 28.6767C102.346 27.3583 102.403 25.7848 102.197 24.2262Z" fill="#1D3650"/>
    <path d="M21.8447 86.8887C22.0063 86.9589 21.5002 84.1308 21.4173 83.95C20.5731 82.0958 18.6721 80.5669 17.3176 79.0742C17.1199 78.8573 16.9221 78.6383 16.6925 78.4554C16.3522 78.1854 15.8738 77.9983 15.4889 78.1981C15.0381 78.4342 14.968 79.0636 15.104 79.5527C15.1848 79.8482 15.3188 80.1289 15.4974 80.3777C15.844 80.8625 16.3331 81.1879 16.7477 81.6025C17.2304 82.0894 17.3155 82.5551 17.6493 83.0825C18.3723 84.2307 19.7289 85.3045 20.7751 86.1636C21.2047 86.5166 21.5661 86.7654 21.8447 86.8887Z" fill="#F3A187"/>
    <path d="M19.7165 91.2504C17.8326 90.6018 14.9152 89.4153 13.0928 88.6604C10.79 87.7078 9.05484 85.4879 7.35372 83.6018C6.96247 83.168 6.55845 82.6874 6.49679 82.0516C6.41386 81.2053 6.95184 80.3782 7.47068 79.6764C7.96187 79.0109 8.46795 78.3581 8.98466 77.718C9.25046 77.3884 9.56092 77.0355 9.93941 76.9866C10.3732 76.9291 10.7113 77.2885 10.9984 77.6117C13.4161 80.3016 16.695 81.4371 19.3955 83.6974C20.767 84.8457 21.7898 87.7503 21.6069 88.1522C21.4219 88.5584 19.7165 91.2504 19.7165 91.2504Z" fill="#F3A187"/>
    <path d="M4.91027 71.2301L-0.000976562 76.9932L15.4385 90.1505L20.3498 84.3874L4.91027 71.2301Z" fill="#0B0A0B"/>
    <path d="M5.4464 70.5972L0.535156 76.3604L15.9746 89.5177L20.8859 83.7546L5.4464 70.5972Z" fill="#434345"/>
    <path d="M6.42549 71.4338L1.51562 77.1953L13.8769 87.7295L18.7868 81.968L6.42549 71.4338Z" fill="#E2E3E4"/>
    <path d="M11.7085 75.9353L9.37793 73.9492V83.8965L11.7085 85.8825V75.9353Z" fill="white"/>
    <path d="M16.3782 79.9142L13.2822 77.2754V87.2226L13.8797 87.7308L16.3782 84.7986V79.9142Z" fill="white"/>
    <path d="M6.42791 71.4336L5.37109 72.6712V80.4814L7.80794 82.5567V72.6095L6.42791 71.4336Z" fill="white"/>
    <path d="M18.3404 84.8939L17.2113 86.2208C17.1411 86.3016 17.0199 86.3101 16.9391 86.242C16.8583 86.174 16.8498 86.0528 16.9178 85.972L18.0469 84.6451C18.115 84.5643 18.2383 84.5558 18.317 84.6239C18.3978 84.6919 18.4084 84.8131 18.3404 84.8939Z" fill="white"/>
    <path d="M81.8838 38.1412C81.8838 38.1412 82.9321 41.5541 85.4391 41.6349C87.9461 41.7157 90.7764 40.4229 91.342 36.8633C91.342 36.8633 89.3198 37.5905 86.5704 37.9137C83.8209 38.2369 81.8838 38.1412 81.8838 38.1412Z" fill="white"/>
    <path d="M91.0523 27.8346C91.0289 28.3492 90.7057 28.7532 90.3315 28.7362C89.9551 28.7192 89.6702 28.2875 89.6914 27.773C89.7148 27.2584 90.0359 26.8544 90.4144 26.8714C90.7886 26.8884 91.0757 27.3179 91.0523 27.8346Z" fill="#1A1C37"/>
    <path d="M82.0749 27.7538C82.0516 28.2684 81.7305 28.6724 81.3541 28.6554C80.9798 28.6384 80.6928 28.2089 80.7162 27.6921C80.7396 27.1776 81.0628 26.7735 81.437 26.7906C81.8113 26.8076 82.0962 27.2371 82.0749 27.7538Z" fill="#1A1C37"/>
    <path d="M85.3299 26.5635C85.3852 27.1823 85.3618 27.8032 85.2576 28.4304C85.2002 28.7366 85.1577 29.0535 85.062 29.349C84.9769 29.6489 84.9025 29.9593 84.7813 30.2443C84.3645 31.4244 83.7564 32.5089 83.127 33.5572L83.1865 33.2191C83.1801 33.2212 83.1716 33.2573 83.2609 33.3275C83.3417 33.3934 83.4778 33.4572 83.6224 33.5104C83.9159 33.6252 84.2582 33.706 84.6027 33.7762C85.2937 33.9378 86.0359 34.0441 86.7312 34.3269C85.9933 34.3865 85.2789 34.4779 84.5304 34.48C84.1561 34.4758 83.7776 34.4566 83.3736 34.3737C83.1716 34.3227 82.9632 34.2631 82.74 34.1313C82.5231 34.0101 82.2573 33.7485 82.1892 33.3871C82.168 33.2744 82.1871 33.1638 82.2381 33.0702L82.2509 33.049L83.1099 31.4669C83.3906 30.9396 83.6756 30.4165 83.935 29.8849C84.2072 29.3576 84.4474 28.8174 84.6813 28.2688C84.9131 27.7266 85.1088 27.1504 85.3299 26.5635Z" fill="#D58166"/>
    <path d="M88.8708 284.231L88.8644 285.845C88.8666 286.164 88.6752 286.453 88.3796 286.576C87.125 287.106 84.9561 287.812 80.1058 288.173C74.3773 288.6 71.7406 288.494 69.4675 287.952C69.1294 287.871 68.7382 287.539 68.7169 287.191L68.6191 285.485L88.8708 284.231Z" fill="white"/>
    <path d="M87.7798 279.37C87.5459 279.65 87.4566 280.025 87.244 280.322C87.0314 280.62 86.7294 280.862 86.436 281.079C85.9107 281.466 85.4174 281.607 84.8752 281.164C83.8439 280.32 84.1203 278.762 83.2294 277.822C82.6552 277.216 81.9068 278.177 81.5963 278.625C81.1413 279.28 80.5182 279.765 79.9696 280.348C79.6039 280.737 79.4253 280.894 78.9808 281.177C78.7597 281.317 78.5322 281.451 78.3004 281.581C78.2345 281.619 78.1707 281.662 78.1026 281.7C77.2053 282.202 76.2739 282.638 75.3341 283.061C75.2937 283.08 75.2363 283.102 75.1704 283.125C75.147 283.133 75.1193 283.144 75.0896 283.153C75.0449 283.17 74.996 283.184 74.9428 283.204C74.9024 283.216 74.8599 283.231 74.8152 283.246C74.7663 283.261 74.7153 283.278 74.66 283.295C74.6069 283.312 74.5537 283.329 74.4963 283.346C72.9015 283.835 69.7459 284.679 69.1803 284.934C68.9932 285.017 68.7976 285.113 68.6934 285.287C68.3723 285.832 69.8608 286.081 70.4838 286.185C73.5862 286.697 78.126 286.593 81.2412 286.317C82.2661 286.225 88.8579 285.358 88.8664 284.235C88.8749 283.155 89.111 282.089 89.1216 281.007C89.1343 280.261 88.9153 278.007 87.7798 279.37Z" fill="#505D88"/>
    <path d="M87.7799 279.37C87.546 279.65 87.4567 280.024 87.244 280.322C87.0314 280.62 86.7294 280.862 86.436 281.079C85.9108 281.466 85.4174 281.607 84.8752 281.164C84.7838 281.09 84.7051 281.007 84.6328 280.922C84.8136 282.595 84.8667 284.316 86.2191 285.485C87.6693 285.141 88.8643 284.709 88.8665 284.233C88.875 283.152 89.111 282.087 89.1216 281.005C89.1344 280.261 88.9154 278.007 87.7799 279.37Z" fill="#5C8AB7"/>
    <path d="M123.606 286.663C123.606 286.663 120.837 279.607 120.788 279.488C120.72 279.316 119.948 279.182 119.842 278.969C119.293 277.883 118.317 277.813 117.341 277.84C116.973 277.851 116.555 277.93 116.238 278.13C115.832 278.389 115.704 278.838 115.398 279.182C115.13 279.482 114.749 279.452 114.388 279.45L112.038 286.661H112.276L112.038 286.977L112.755 287.905L117.779 288.372L122.9 287.905L123.608 286.98L123.37 286.663H123.606Z" fill="#515E89"/>
    <path d="M112.061 286.624L112.038 286.662C112.038 287.305 112.374 288.555 112.961 288.814C114.845 289.65 116.959 289.92 119.002 289.712C120.025 289.608 121.037 289.382 122.004 289.036C122.408 288.891 122.819 288.763 123.123 288.442C123.293 288.259 123.774 286.933 123.608 286.66L123.584 286.622C123.623 286.682 120.72 287.679 120.427 287.741C119.255 287.979 118.075 288.079 116.882 287.991C115.878 287.917 114.673 287.794 113.741 287.377L112.061 286.624Z" fill="white"/>
    <path d="M88.7788 23.9558C88.8299 23.9452 89.1021 23.9091 88.9 23.9303C89 23.9197 89.0999 23.9091 89.1999 23.9006C89.421 23.8836 89.6443 23.8772 89.8676 23.8772C90.1227 23.8772 90.3779 23.8878 90.6309 23.9048C90.7734 23.9133 90.9159 23.9261 91.0583 23.941C91.1306 23.9473 91.2051 23.9558 91.2774 23.9644C91.2731 23.9644 91.4836 23.9899 91.3964 23.9792C92.5532 24.1345 93.7078 24.4322 94.6711 25.002C95.4068 25.4379 96.0745 24.2918 95.3409 23.858C94.2288 23.201 92.9444 22.865 91.675 22.6906C90.6097 22.5439 89.4912 22.4631 88.428 22.68C88.0771 22.7523 87.8751 23.167 87.9644 23.4965C88.0644 23.858 88.4259 24.0281 88.7788 23.9558Z" fill="#003550"/>
    <path d="M78.0878 24.218C78.1622 24.184 78.2345 24.1521 78.3089 24.1202C78.3918 24.0841 78.3663 24.0968 78.2983 24.1245C78.3429 24.1053 78.3854 24.0883 78.4301 24.0713C78.5938 24.0054 78.7597 23.9437 78.9277 23.8884C79.3274 23.7545 79.7378 23.6545 80.1525 23.5886C80.1674 23.5865 80.3332 23.5631 80.2609 23.5716C80.1886 23.5801 80.3609 23.561 80.3757 23.5588C80.5055 23.5461 80.6352 23.5355 80.7649 23.527C81.0349 23.5121 81.305 23.5078 81.5772 23.5163C82.2342 23.5376 82.8806 23.6269 83.5249 23.763C83.8758 23.8353 84.2415 23.6609 84.3415 23.2994C84.4329 22.9698 84.2309 22.5573 83.8779 22.4829C82.551 22.2065 81.2114 22.098 79.8654 22.2979C79.0085 22.4255 78.2047 22.7168 77.4201 23.0719C77.0947 23.2186 77.0139 23.6928 77.1819 23.9799C77.3775 24.3137 77.7603 24.3647 78.0878 24.218Z" fill="#003550"/>
    <path d="M137.067 110.243C137.937 110.311 142.354 109.62 141.852 106.258C139.704 91.8453 133.236 85.5045 130.892 75.8974C127.856 63.441 116.967 55.0205 108.859 55.7988C105.541 56.1178 109.909 75.9676 117.923 89.4043C119.627 92.2621 123.327 101.603 132.147 113.558C132.149 113.56 137.065 110.241 137.067 110.243Z" fill="#F3A187"/>
    <path d="M53.2924 103.696C46.2477 94.0231 35.148 91.4438 26.8487 86.9678C24.9753 88.3414 21.7411 93.0875 20.0527 94.6781C26.5382 102.016 36.5663 109.718 48.6761 117.549C50.9683 118.353 53.6178 114.966 54.5576 111.406C55.1998 108.974 52.4164 102.49 53.2924 103.696Z" fill="#26415E"/>
    <path d="M46.8686 110.417C45.999 110.485 40.2449 105.488 40.7468 102.126C42.8923 87.7134 49.5989 85.4637 51.9422 75.8567C54.9808 63.4003 66.9694 55.1946 75.0773 55.9728C78.3945 56.2918 75.3793 76.6647 67.3628 90.1014C65.6595 92.9592 61.9384 102.717 53.1181 114.672C53.1181 114.674 46.8708 110.415 46.8686 110.417Z" fill="#26415E"/>
    <path d="M118.9 65.3484C118.389 63.1518 118.372 57.6849 110.19 55.248C108.21 54.659 102.595 52.5518 99.5155 51.8097C98.2844 53.6213 96.7704 55.1268 94.5483 55.5989C90.691 56.4175 87.9841 55.5032 84.903 53.211C84.6032 52.9877 84.3799 52.7283 84.2225 52.4476C81.2924 52.8729 72.3956 55.2076 69.761 56.6408C62.5079 60.5789 63.1415 75.9187 62.4292 82.8549C61.198 94.8435 60.2645 106.875 60.2645 118.931C60.2645 124.768 61.5446 125.68 64.109 130.354C66.7373 135.149 64.9064 142 68.5787 146.406C71.7045 150.157 80.1803 148.286 84.6755 148.237C92.12 148.154 99.5644 148.073 107.007 147.99C109.201 147.967 115.531 149.009 117.243 147.663C117.996 147.072 119.45 143.204 119.786 142.2C120.327 140.582 120.118 138.717 120.214 136.976C120.32 134.996 119.957 132.931 120.475 131.043C120.928 129.395 121.974 128.262 122.302 126.52C123.05 122.563 122.304 117.747 122.304 113.711C122.304 104.684 121.789 95.6643 120.969 86.6782C120.333 79.7887 120.456 72.0486 118.9 65.3484Z" fill="#26415E"/>
    <path d="M122.3 113.713C122.3 104.686 121.785 95.6661 120.964 86.68C120.333 79.7883 120.456 72.0483 118.9 65.348C118.253 62.5603 117.69 58.9922 114.836 57.4761C111.117 55.5007 110.003 61.6141 109.52 64.6336C108.306 72.2269 110.479 80.1604 112.912 87.2987C114.372 91.5813 116.809 95.5534 117.745 99.972C119.382 107.68 117.681 115.093 116.811 122.746C116.159 128.489 117.575 135.238 114.285 140.439C111.753 144.45 105.778 144.641 101.574 144.66C89.751 144.713 77.9793 145.107 66.5117 141.996C66.8923 143.601 67.4941 145.113 68.5764 146.408C71.7022 150.159 80.178 148.288 84.6732 148.239C92.1177 148.156 99.5622 148.075 107.005 147.992C109.199 147.969 115.529 149.011 117.241 147.665C117.994 147.074 119.448 143.206 119.784 142.202C120.324 140.584 120.116 138.719 120.212 136.975C120.318 134.996 119.954 132.931 120.473 131.043C120.926 129.395 121.972 128.261 122.3 126.52C123.046 122.565 122.3 117.749 122.3 113.713Z" fill="#203953"/>
    <path d="M95.3048 59.0547C99.0919 58.1616 100.872 55.6482 101.782 52.4458C100.95 52.1907 99.7808 51.7718 99.1217 51.6123C97.8905 53.424 96.6402 54.6679 94.416 55.1421C90.5608 55.9608 88.2197 55.4079 85.1385 53.1157C84.8387 52.8924 84.6154 52.633 84.4581 52.3523C83.7032 52.4607 82.3168 52.7946 80.9814 53.1093C83.3651 58.4125 89.8145 60.3496 95.3048 59.0547Z" fill="#36587B"/>
    <path d="M120.667 82.6104H62.4504C62.444 82.6912 62.4355 82.7784 62.427 82.8571C62.2675 84.4008 62.1165 85.9446 61.9719 87.4905H121.032C121.009 87.2204 120.988 86.9504 120.964 86.6824C120.843 85.3513 120.75 83.9883 120.667 82.6104Z" fill="#E7656F"/>
    <path d="M61.5171 92.5428C61.3746 94.2269 61.2364 95.911 61.1131 97.5972H121.792C121.692 95.911 121.575 94.2269 121.447 92.5428H61.5171Z" fill="#E7656F"/>
    <path d="M138.986 142.12C140.993 132.585 142.579 120.222 141.99 104.478C140.321 103.317 134.816 102.788 132.424 104.602C130.421 106.122 127.354 105.788 127.354 105.784C126.636 117.334 127.127 131.264 128.226 140.81C130.461 141.19 136.981 141.133 138.986 142.12Z" fill="#26415E"/>
    <path d="M137.068 110.243C137.937 110.311 142.492 107.972 141.993 104.61C139.845 90.1977 133.748 84.9412 131.405 75.3342C128.367 62.8778 116.967 55.0208 108.859 55.7991C105.542 56.118 107.664 75.2704 115.678 88.7092C117.382 91.5671 121.145 105.159 129.968 117.113C129.968 117.116 137.066 110.241 137.068 110.243Z" fill="#26415E"/>
    <path d="M68.8018 129.487C69.1951 129.393 69.6055 129.334 69.9798 129.195C70.3625 129.091 70.724 128.919 71.0876 128.774C71.8021 128.443 72.4613 128.026 73.0545 127.537C74.2538 126.567 75.1767 125.323 75.9337 123.992C76.7034 122.663 77.2435 121.207 77.7198 119.739C77.9537 119.001 78.1515 118.253 78.3195 117.498C78.4045 117.122 78.479 116.743 78.5449 116.365C78.6129 115.995 78.6682 115.591 78.7107 115.261L78.8553 114.113H80.0844L83.359 114.111C84.452 114.111 85.5428 114.094 86.6358 114.106L93.1808 114.17L99.7152 114.296C100.802 114.296 101.886 114.343 102.973 114.364L106.199 114.37L107.445 114.372L107.602 115.478C107.808 116.947 108.057 118.404 108.427 119.82C108.808 121.23 109.233 122.629 109.877 123.922C110.519 125.208 111.302 126.442 112.376 127.424C113.422 128.43 114.74 129.191 116.203 129.661C115.438 129.61 114.664 129.482 113.913 129.242C113.165 128.995 112.437 128.651 111.757 128.221C110.415 127.335 109.258 126.14 108.378 124.794C107.494 123.448 106.773 122.002 106.243 120.505C105.703 119.012 105.276 117.49 104.938 115.963L106.339 117.071C104.11 117.213 101.903 117.319 99.7088 117.353C97.5144 117.36 95.3178 117.375 93.1298 117.349L86.5614 117.16C84.3754 117.062 82.1874 116.93 79.9993 116.805L81.3751 115.655C81.29 116.122 81.1858 116.511 81.0753 116.928C80.9626 117.336 80.8478 117.743 80.718 118.145C80.4629 118.948 80.1758 119.739 79.8526 120.518C79.2147 122.078 78.379 123.567 77.3669 124.934C76.3674 126.308 75.0789 127.501 73.6116 128.36C72.8632 128.768 72.07 129.078 71.2599 129.283C70.8495 129.365 70.4412 129.442 70.0223 129.463C69.6119 129.516 69.21 129.482 68.8018 129.487Z" fill="#122941"/>
    <path d="M89.5147 150.976C89.0639 152.012 88.662 153.047 88.4515 154.157C88.2558 155.184 88.1368 156.237 88.1368 157.283C88.1346 159.097 88.4472 160.898 88.6875 162.688C88.6556 162.452 88.6237 162.218 88.5918 161.982C88.813 163.645 88.9724 165.321 88.747 166.992C88.7789 166.756 88.8108 166.522 88.8427 166.286C88.7088 167.237 88.4557 168.16 88.0857 169.046C88.175 168.836 88.2644 168.623 88.3537 168.413C88.3069 168.525 88.2559 168.636 88.2069 168.746C88.0134 169.051 87.9092 169.38 87.8922 169.733C87.8136 170.086 87.8284 170.439 87.939 170.79C88.1091 171.404 88.5833 172.072 89.1574 172.374C89.772 172.699 90.5183 172.863 91.2009 172.642C91.8197 172.442 92.5065 172.04 92.7851 171.424C93.238 170.424 93.6356 169.412 93.8483 168.334C94.0439 167.343 94.1587 166.32 94.163 165.31C94.1693 163.524 93.8589 161.749 93.6229 159.981C93.6548 160.218 93.6866 160.451 93.7185 160.687C93.4889 158.971 93.3273 157.243 93.5527 155.516C93.5208 155.752 93.4889 155.986 93.457 156.222C93.5995 155.178 93.878 154.164 94.2842 153.192C94.1949 153.402 94.1055 153.615 94.0162 153.826C94.0418 153.768 94.0651 153.709 94.0907 153.651C94.2842 153.347 94.3884 153.018 94.4054 152.665C94.484 152.312 94.4692 151.959 94.3586 151.608C94.1885 150.993 93.7143 150.326 93.1402 150.024C92.5256 149.698 91.7793 149.535 91.0967 149.756C90.4864 149.956 89.7826 150.357 89.5147 150.976Z" fill="#A2A5AA"/>
    <path d="M93.6917 153.281C93.915 154.268 94.083 155.265 94.2191 156.269C94.1872 156.033 94.1553 155.799 94.1234 155.563C94.6189 159.273 94.672 163.103 95.867 166.684C96.2625 167.866 96.7601 169.027 97.3576 170.12C97.6723 170.694 98.3188 171.166 98.9418 171.338C99.5776 171.513 100.422 171.434 100.985 171.07C102.221 170.273 102.648 168.746 101.936 167.443C101.659 166.939 101.411 166.42 101.185 165.891C101.274 166.101 101.364 166.314 101.453 166.524C100.685 164.689 100.264 162.75 99.9965 160.785C100.028 161.021 100.06 161.255 100.092 161.491C99.6626 158.282 99.5202 155.035 98.8078 151.869C98.6654 151.238 98.138 150.606 97.5894 150.285C97.0217 149.953 96.1839 149.811 95.546 150.017C94.1234 150.478 93.3643 151.829 93.6917 153.281Z" fill="#A2A5AA"/>
    </g>
    <defs>
    <clipPath id="clip0_10_2646">
    <rect width="142.115" height="289.78" fill="white"/>
    </clipPath>
    </defs>
    </svg>
    