<svg width="80" height="80" viewBox="0 0 80 80" fill="none" xmlns="http://www.w3.org/2000/svg">
    <path d="M11.3623 47.1793C14.2082 51.166 16.3726 55.5975 17.7673 60.293C19.4167 66.2751 20.169 72.4688 19.9998 78.6718L22.4998 78.8268C22.7023 72.3453 21.9192 65.8706 20.1773 59.6243C18.7111 54.6629 16.4299 49.9798 13.4273 45.7668C9.72264 40.3235 8.14515 33.7097 8.99416 27.1803C9.84317 20.6509 13.0596 14.6604 18.0331 10.3456C23.0066 6.03074 29.391 3.69183 35.9749 3.7727C42.5587 3.85356 48.8838 6.34858 53.7498 10.7843C56.4422 13.2272 58.6061 16.1953 60.1083 19.5058C61.6105 22.8164 62.4193 26.3994 62.4848 30.0343C62.4914 30.3023 62.5854 30.5608 62.7523 30.7705L70.3235 43.7493H63.7498C63.4183 43.7493 63.1003 43.881 62.8659 44.1154C62.6315 44.3498 62.4998 44.6678 62.4998 44.9993V59.9993C62.4998 60.6623 62.2364 61.2982 61.7676 61.767C61.2987 62.2359 60.6628 62.4993 59.9998 62.4993H46.2498V64.9993H51.2498V78.7493H53.7498V64.9993H59.9998C61.3259 64.9993 62.5976 64.4725 63.5353 63.5348C64.473 62.5971 64.9998 61.3254 64.9998 59.9993V46.2493H72.4998C72.719 46.2488 72.9342 46.1908 73.1239 46.0809C73.3136 45.971 73.471 45.8131 73.5804 45.6232C73.6898 45.4332 73.7474 45.2178 73.7473 44.9986C73.7471 44.7794 73.6894 44.5641 73.5798 44.3743L64.9735 29.6243C64.6964 22.1094 61.5477 14.9871 56.1762 9.72436C50.8047 4.46164 43.6194 1.45936 36.1004 1.33599C28.5815 1.21262 21.3016 3.97754 15.7603 9.0612C10.219 14.1449 6.83838 21.1601 6.31479 28.6618C5.85674 35.2273 7.63589 41.7544 11.3623 47.1793Z" fill="#5A5A5A"/>
    <path d="M47.4213 24.5076C47.5028 24.2097 47.5227 23.8983 47.4797 23.5925C47.4367 23.2866 47.3317 22.9928 47.1713 22.7289L45.36 19.7289C45.0338 19.203 44.5183 18.8222 43.9197 18.665C43.3211 18.5078 42.685 18.5861 42.1425 18.8839L41.5363 19.2289C40.812 18.7004 40.0262 18.2618 39.1963 17.9226V17.3289C39.1883 16.704 38.9327 16.1077 38.4856 15.6711C38.0384 15.2344 37.4362 14.9931 36.8113 15.0001H33.1863C32.5628 14.9958 31.963 15.2385 31.518 15.6751C31.0729 16.1117 30.8188 16.7067 30.8113 17.3301V17.9251C29.9882 18.2505 29.2184 18.6971 28.5275 19.2501L27.865 18.8851C27.3226 18.5883 26.6871 18.5103 26.089 18.6672C25.4909 18.8241 24.9756 19.204 24.6488 19.7289L22.835 22.7289C22.675 22.9928 22.5704 23.2864 22.5274 23.592C22.4844 23.8975 22.504 24.2086 22.585 24.5064C22.6665 24.8104 22.8091 25.0946 23.004 25.3418C23.1989 25.5889 23.4421 25.7938 23.7188 25.9439L24.275 26.2514C24.1679 27.0813 24.1679 27.9215 24.275 28.7514L23.7188 29.0589C23.4421 29.209 23.1989 29.4139 23.004 29.661C22.8091 29.9082 22.6665 30.1924 22.585 30.4964C22.5038 30.7943 22.484 31.1057 22.527 31.4115C22.57 31.7173 22.6748 32.0111 22.835 32.2751L24.6463 35.2751C24.9729 35.8006 25.4884 36.181 26.0868 36.3381C26.6852 36.4953 27.3211 36.4173 27.8638 36.1201L28.47 35.7751C29.1943 36.3036 29.98 36.7423 30.81 37.0814V37.6751C30.8189 38.2983 31.0741 38.8927 31.5198 39.3283C31.9655 39.764 32.5655 40.0055 33.1888 40.0001H36.8138C37.4372 40.0045 38.037 39.7618 38.482 39.3252C38.9271 38.8886 39.1812 38.2936 39.1888 37.6701V37.0751C40.0118 36.7498 40.7816 36.3032 41.4725 35.7501L42.135 36.1151C42.6774 36.412 43.3129 36.49 43.911 36.3331C44.5091 36.1762 45.0244 35.7963 45.3513 35.2714L47.165 32.2714C47.3253 32.0076 47.4301 31.714 47.4731 31.4084C47.516 31.1028 47.4963 30.7916 47.415 30.4939C47.334 30.1898 47.1917 29.9055 46.997 29.6584C46.8023 29.4112 46.5591 29.2064 46.2825 29.0564L45.7325 28.7501C45.8396 27.9203 45.8396 27.08 45.7325 26.2501L46.2888 25.9426C46.5651 25.793 46.8081 25.5885 47.0028 25.3418C47.1975 25.0951 47.3399 24.8112 47.4213 24.5076ZM43.3125 27.5001C43.3125 27.8545 43.2866 28.2083 43.235 28.5589C43.1756 29.0212 43.2577 29.4907 43.4703 29.9055C43.683 30.3203 44.0162 30.661 44.4263 30.8826L44.9263 31.1551L43.2775 33.8851L42.6888 33.5614C42.2783 33.3408 41.8135 33.2415 41.3487 33.2751C40.8839 33.3088 40.4382 33.474 40.0638 33.7514C39.4958 34.1681 38.8776 34.5116 38.2238 34.7739C37.7809 34.9408 37.3987 35.2375 37.1271 35.6251C36.8554 36.0127 36.707 36.4731 36.7013 36.9464V37.5001H33.3075V36.9464C33.3016 36.4733 33.1534 36.013 32.882 35.6255C32.6106 35.238 32.2288 34.9412 31.7863 34.7739C31.1321 34.5111 30.5135 34.1671 29.945 33.7501C29.5708 33.4722 29.1252 33.3067 28.6603 33.2728C28.1954 33.2389 27.7305 33.3382 27.32 33.5589L26.7313 33.8826L25.0813 31.1526L25.5813 30.8801C25.9919 30.6588 26.3256 30.318 26.5383 29.9028C26.751 29.4877 26.8327 29.0177 26.7725 28.5551C26.7191 28.206 26.6907 27.8534 26.6875 27.5001C26.6875 27.1458 26.7134 26.792 26.765 26.4414C26.8244 25.9791 26.7424 25.5096 26.5297 25.0948C26.3171 24.68 25.9838 24.3393 25.5738 24.1176L25.0738 23.8451L26.7238 21.1151L27.3125 21.4389C27.7231 21.6592 28.1878 21.7583 28.6526 21.7247C29.1173 21.6911 29.5629 21.526 29.9375 21.2489C30.5055 20.8322 31.1237 20.4887 31.7775 20.2264C32.2204 20.0595 32.6026 19.7628 32.8742 19.3752C33.1458 18.9876 33.2942 18.5271 33.3 18.0539V17.5001H36.685V18.0539C36.6909 18.527 36.8392 18.9873 37.1105 19.3748C37.3819 19.7623 37.7637 20.0591 38.2063 20.2264C38.8631 20.4887 39.4842 20.8326 40.055 21.2501C40.4292 21.5281 40.8748 21.6936 41.3397 21.7275C41.8046 21.7614 42.2695 21.6621 42.68 21.4414L43.2688 21.1176L44.9175 23.8476L44.4238 24.1201C44.0132 24.3415 43.6794 24.6823 43.4667 25.0975C43.254 25.5126 43.1723 25.9826 43.2325 26.4451C43.2843 26.7945 43.311 27.147 43.3125 27.5001Z" fill="#5A5A5A"/>
    <path d="M35 21.875C33.8875 21.875 32.7999 22.2049 31.8749 22.823C30.9499 23.4411 30.2289 24.3196 29.8032 25.3474C29.3774 26.3752 29.266 27.5062 29.4831 28.5974C29.7001 29.6885 30.2359 30.6908 31.0225 31.4775C31.8092 32.2641 32.8115 32.7999 33.9026 33.0169C34.9938 33.234 36.1248 33.1226 37.1526 32.6968C38.1804 32.2711 39.0589 31.5501 39.677 30.6251C40.2951 29.7001 40.625 28.6125 40.625 27.5C40.6233 26.0087 40.0302 24.5789 38.9757 23.5244C37.9211 22.4698 36.4913 21.8767 35 21.875ZM35 30.625C34.3819 30.625 33.7777 30.4417 33.2638 30.0983C32.7499 29.755 32.3494 29.2669 32.1129 28.6959C31.8764 28.1249 31.8145 27.4965 31.935 26.8903C32.0556 26.2842 32.3533 25.7273 32.7903 25.2903C33.2273 24.8533 33.7842 24.5556 34.3903 24.435C34.9965 24.3145 35.6249 24.3764 36.1959 24.6129C36.7669 24.8494 37.255 25.2499 37.5983 25.7638C37.9417 26.2777 38.125 26.8819 38.125 27.5C38.125 28.3288 37.7958 29.1237 37.2097 29.7097C36.6237 30.2958 35.8288 30.625 35 30.625Z" fill="#5A5A5A"/>
    <path d="M52.1662 28.7024C52.275 28.7322 52.3872 28.7473 52.5 28.7474C52.7157 28.7474 52.9277 28.6915 53.1154 28.5853C53.3031 28.479 53.4601 28.326 53.5712 28.1412L57.3212 21.8912L55.1787 20.6037L53.3525 23.6462C52.4974 19.5617 50.3042 15.8793 47.1202 13.1819C43.9362 10.4846 39.9433 8.92643 35.7739 8.75425C31.6045 8.58208 27.4968 9.80571 24.1013 12.2314C20.7057 14.6571 18.2164 18.1462 17.0275 22.1462L19.4225 22.8587C20.5345 19.1145 22.9578 15.8961 26.2489 13.7927C29.54 11.6893 33.4786 10.8417 37.3436 11.405C41.2086 11.9683 44.7414 13.9048 47.2952 16.8601C49.849 19.8154 51.2529 23.5916 51.25 27.4974C51.2499 27.7708 51.3394 28.0367 51.5049 28.2544C51.6704 28.472 51.9027 28.6294 52.1662 28.7024ZM52.9725 32.8537L50.5775 32.1412C49.4653 35.8858 47.0416 39.1045 43.7499 41.2078C40.4583 43.3112 36.5192 44.1585 32.6539 43.5945C28.7885 43.0305 25.2557 41.0931 22.7023 38.1369C20.1489 35.1807 18.7458 31.4037 18.75 27.4974C18.7499 27.2242 18.6603 26.9585 18.4948 26.741C18.3294 26.5236 18.0973 26.3663 17.834 26.2933C17.5707 26.2203 17.2908 26.2355 17.037 26.3367C16.7832 26.4379 16.5695 26.6195 16.4287 26.8537L12.6787 33.1037L14.8212 34.3912L16.6475 31.3487C17.5026 35.4331 19.6957 39.1155 22.8797 41.8129C26.0637 44.5103 30.0566 46.0684 34.226 46.2406C38.3954 46.4127 42.5031 45.1891 45.8987 42.7634C49.2942 40.3378 51.7835 36.8487 52.9725 32.8487V32.8537Z" fill="#5A5A5A"/>
    </svg>
    