<svg width="80" height="80" viewBox="0 0 80 80" fill="none" xmlns="http://www.w3.org/2000/svg">
    <g clip-path="url(#clip0_10_2434)">
    <path fill-rule="evenodd" clip-rule="evenodd" d="M63.2741 47.5442L58.8455 50.9942C58.1732 51.5187 57.334 51.7825 56.4826 51.737L45.7314 51.1651C45.0358 51.1282 44.4404 51.6629 44.4034 52.3593C44.3664 53.0557 44.9012 53.651 45.5976 53.6882L56.3488 54.26C57.8078 54.3372 59.2457 53.8853 60.3984 52.9875L64.827 49.5365C65.3769 49.1088 65.4755 48.3137 65.0468 47.764C64.618 47.2141 63.824 47.1155 63.2741 47.5442ZM42.5027 43.9053L55.0669 44.5731C55.0896 44.5748 55.1116 44.5748 55.1343 44.5748C55.1343 44.5748 55.4584 44.6379 55.8804 44.3306L69.8668 34.1739C70.4302 33.7638 70.5557 32.973 70.1465 32.4096C69.7363 31.8455 68.9456 31.72 68.3822 32.1292L54.7544 42.0264L42.6373 41.3822C41.9409 41.3452 41.3456 41.8799 41.3084 42.5763C41.2716 43.273 41.8071 43.8684 42.5027 43.9053ZM66.192 5.44141C60.5288 5.44141 55.9317 10.0384 55.9317 15.7008C55.9317 21.364 60.5288 25.961 66.192 25.961C71.8542 25.961 76.4514 21.364 76.4514 15.7008C76.4514 10.0384 71.8543 5.44141 66.192 5.44141ZM66.192 7.96772C70.4598 7.96772 73.9251 11.433 73.9251 15.7008C73.9251 19.9695 70.4598 23.4347 66.192 23.4347C61.9233 23.4347 58.4581 19.9695 58.4581 15.7008C58.4581 11.433 61.9233 7.96772 66.192 7.96772ZM77.3811 37.9686L77.4694 67.2519H68.8345C68.1372 67.2519 67.5714 67.8178 67.5714 68.5152C67.5714 69.2125 68.1373 69.7783 68.8345 69.7783H78.7369C78.903 69.7783 79.0676 69.7455 79.221 69.6817C79.3745 69.618 79.5139 69.5246 79.6312 69.4069C79.7486 69.2894 79.8416 69.1498 79.9049 68.9961C79.9682 68.8425 80.0005 68.6779 80 68.5117L79.9074 37.9609C79.9057 37.2636 79.3372 36.6994 78.6401 36.7019C77.9435 36.7037 77.3793 37.2713 77.3811 37.9686Z" fill="#5A5A5A"/>
    <path fill-rule="evenodd" clip-rule="evenodd" d="M79.7318 38.8475C80.7743 35.2291 78.6842 31.4445 75.0657 30.4013C71.448 29.3578 67.6636 31.4488 66.6202 35.0665C66.6202 35.0665 62.1394 50.69 61.0985 54.3178L49.2349 62.0063C46.0754 64.0543 45.1718 68.2825 47.2198 71.4429C49.2678 74.6025 53.4961 75.5052 56.6564 73.458L70.6219 64.4062C72.0013 63.5123 73.0117 62.1505 73.4674 60.5712L79.7318 38.8475ZM77.3041 38.1477L71.0396 59.8715C70.7529 60.866 70.1169 61.7236 69.2484 62.2866L55.2821 71.3376C53.2922 72.6269 50.6295 72.0585 49.3402 70.0686C48.05 68.0787 48.6194 65.4159 50.6093 64.1267L62.8324 56.205C62.9977 56.0977 63.1356 55.9533 63.2352 55.7832C63.3347 55.6132 63.3932 55.4222 63.4058 55.2256L69.0471 35.7671C69.7048 33.4883 72.0879 32.1721 74.3659 32.829C76.6446 33.4858 77.9608 35.8691 77.3041 38.1477Z" fill="#5A5A5A"/>
    <path fill-rule="evenodd" clip-rule="evenodd" d="M53.5803 60.7905C53.4954 60.6404 53.3807 60.5092 53.2432 60.4049C53.1058 60.3007 52.9486 60.2255 52.7811 60.1842C52.6137 60.1431 52.4396 60.1367 52.2696 60.1653C52.0996 60.194 51.9372 60.2572 51.7925 60.3509L49.235 62.0082C46.0754 64.0562 45.1719 68.2844 47.2199 71.4448C49.2679 74.6043 53.4961 75.5071 56.6565 73.4599L58.6379 72.1748C58.9077 72 59.1006 71.7289 59.1775 71.4167C59.2543 71.1046 59.2092 70.7749 59.0514 70.4949L53.5803 60.7905ZM52.0393 63.2014L56.2675 70.7012L55.2822 71.3395C53.2923 72.6287 50.6296 72.0603 49.3403 70.0704C48.0501 68.0806 48.6195 65.4178 50.6093 64.1285L52.0393 63.2014ZM12.739 5.44141C7.07679 5.44141 2.47962 10.0384 2.47962 15.7008C2.47962 21.364 7.07666 25.961 12.739 25.961C18.4022 25.961 22.9993 21.364 22.9993 15.7008C22.9993 10.0384 18.4022 5.44141 12.739 5.44141ZM12.739 7.96772C17.0077 7.96772 20.4729 11.433 20.4729 15.7008C20.4729 19.9695 17.0077 23.4347 12.739 23.4347C8.47132 23.4347 5.00594 19.9695 5.00594 15.7008C5.00594 11.433 8.47119 7.96772 12.739 7.96772ZM1.15247 40.3492V70.03C1.15247 70.7273 1.71757 71.2931 2.41556 71.2931H21.4909C21.8056 71.2931 22.1091 71.1756 22.3418 70.9637C22.5745 70.7517 22.7197 70.4605 22.7489 70.1471C22.7489 70.1471 23.1793 65.5618 22.9106 58.7466C22.8837 58.0502 22.2958 57.507 21.5986 57.5348C20.9022 57.5617 20.3591 58.1495 20.3868 58.8459C20.5687 63.4716 20.4213 67.0387 20.316 68.7668H3.67878V40.3492C3.67878 39.6519 3.11289 39.0861 2.41569 39.0861C1.71849 39.0861 1.15247 39.6519 1.15247 40.3492Z" fill="#5A5A5A"/>
    <path fill-rule="evenodd" clip-rule="evenodd" d="M2.87553 42.5202L21.3176 55.5989C22.658 56.5498 24.2968 56.9846 25.9323 56.8233L42.4949 55.1922C46.2423 54.8234 48.9859 51.481 48.6162 47.7337C48.2474 43.9863 44.905 41.2436 41.1577 41.6124L27.0885 42.9985L10.7686 31.3892C7.6974 29.2115 3.43469 29.9366 1.25697 33.0078C-0.921536 36.0798 -0.196467 40.3417 2.87553 42.5202ZM4.3365 40.4595C2.40224 39.0877 1.94572 36.4039 3.31752 34.4697C4.68933 32.5354 7.3731 32.0789 9.30737 33.4499L25.8505 45.1468C25.9831 45.2926 26.1479 45.4055 26.3319 45.4763C26.5158 45.547 26.7138 45.5738 26.9099 45.5544L41.4051 44.127C43.7655 43.8945 45.8699 45.6218 46.1024 47.9813C46.3348 50.3409 44.6076 52.4461 42.2472 52.6786L25.6848 54.3097C24.6548 54.4108 23.6229 54.1369 22.7787 53.5382L4.3365 40.4595Z" fill="#5A5A5A"/>
    <path fill-rule="evenodd" clip-rule="evenodd" d="M37.2295 43.2672L38.2989 54.335C38.3663 55.0289 38.9836 55.5376 39.6775 55.4711C40.3714 55.4037 40.8809 54.7856 40.8135 54.0917L39.744 43.0248C39.6775 42.3309 39.0594 41.8214 38.3655 41.8888C37.6716 41.9552 37.1629 42.5733 37.2295 43.2672Z" fill="#5A5A5A"/>
    </g>
    <defs>
    <clipPath id="clip0_10_2434">
    <rect width="80" height="80" fill="white"/>
    </clipPath>
    </defs>
    </svg>
    