<svg width="80" height="80" viewBox="0 0 80 80" fill="none" xmlns="http://www.w3.org/2000/svg">
    <g clip-path="url(#clip0_10_2460)">
    <path d="M68.3356 29.2006L66.7666 30.7708C66.5663 30.9685 66.3561 31.1557 66.1367 31.3319C67.9431 35.378 68.9576 39.8538 68.9576 44.5639C68.9576 62.5195 54.3489 77.1272 36.3925 77.1272C18.435 77.1272 3.82641 62.5195 3.82641 44.5639C3.82641 26.6102 18.4352 12.0036 36.3925 12.0036C40.1328 12.0036 43.7234 12.6458 47.0722 13.8108V13.8097C47.3912 13.3028 47.7637 12.798 48.2736 12.2844L49.0795 11.4773C45.0308 9.92265 40.7304 9.12657 36.3934 9.12891C16.8231 9.13016 0.953125 24.9953 0.953125 44.5628C0.953125 64.1333 16.8231 79.9984 36.3927 79.9984C55.965 79.9984 71.8312 64.1331 71.8312 44.5628C71.8311 39.06 70.5766 33.8478 68.3356 29.2006Z" fill="#5A5A5A"/>
    <path d="M58.113 33.5316H54.8919C56.5305 36.5278 57.4633 39.9614 57.4633 43.6092C57.4633 55.2273 48.0107 64.6791 36.3924 64.6791C24.7733 64.6791 15.3207 55.2272 15.3207 43.6092C15.3205 31.9927 24.7732 22.5411 36.3924 22.5411C39.6583 22.5411 42.7546 23.288 45.5163 24.6209V21.4733C42.7038 20.313 39.623 19.668 36.3924 19.668C23.1671 19.668 12.4463 30.3878 12.4463 43.6094C12.4463 56.8309 23.1669 67.5527 36.3924 67.5527C49.6149 67.5527 60.3375 56.8309 60.3375 43.6094C60.3377 40.008 59.5364 36.5955 58.113 33.5316Z" fill="#5A5A5A"/>
    <path d="M78.824 11.8428C78.6 11.4083 78.238 11.1045 77.8799 10.9214C77.5188 10.7366 77.15 10.6498 76.7729 10.6109L69.9333 9.92875C69.7941 9.91828 69.575 9.82203 69.4036 9.64687C69.2283 9.47531 69.1321 9.25625 69.1225 9.11719L68.4375 2.275C68.3841 1.77484 68.2518 1.2775 67.9032 0.814531C67.717 0.568704 67.4788 0.367027 67.2057 0.223906C66.9192 0.0768826 66.6018 0.000134067 66.2797 0C65.8805 0.00109375 65.5261 0.113281 65.228 0.266719C64.9297 0.422969 64.6765 0.622969 64.4477 0.850625L50.6432 14.6552C50.0821 15.2239 49.6829 15.908 49.376 16.6395C49.0769 17.3741 48.8739 18.1411 48.8682 18.9403V26.8239C48.87 27.3641 49.0093 27.8672 49.2369 28.3187L43.2969 34.4359C41.3724 32.9859 38.988 32.1142 36.3927 32.1142C30.0438 32.1142 24.8993 37.2606 24.8993 43.6066C24.8993 49.9525 30.0438 55.0989 36.3927 55.0989C42.7386 55.0989 47.8861 49.9525 47.8861 43.6066C47.8861 40.8914 46.9383 38.4 45.3625 36.4328L51.515 30.0983C51.7473 30.1486 51.9842 30.1748 52.2219 30.1764H60.1102C60.9094 30.1708 61.6765 29.9687 62.4099 29.6695C63.1425 29.3617 63.8265 28.9627 64.3961 28.4016L78.1979 14.6008C78.4255 14.372 78.6246 14.1187 78.781 13.8197C78.9344 13.5214 79.0477 13.1672 79.0477 12.7689C79.0494 12.4466 78.9726 12.1288 78.824 11.8428ZM36.3927 52.2269C31.6388 52.2269 27.7716 48.3608 27.7716 43.6077C27.7716 38.8556 31.6386 34.9884 36.3927 34.9884C38.2058 34.9884 39.8882 35.5544 41.278 36.5145L35.3618 42.608C34.8091 43.1767 34.8225 44.0866 35.3914 44.6391C35.9602 45.1917 36.871 45.1783 37.4236 44.6094L43.3361 38.5216C44.3849 39.9489 45.0127 41.7037 45.0127 43.6073C45.0127 48.3608 41.1457 52.2269 36.3927 52.2269ZM51.7435 25.7409V18.9416C51.7379 18.6881 51.8416 18.1917 52.0332 17.7402C52.2152 17.2867 52.4933 16.8627 52.6772 16.6873L65.693 3.67266L66.2657 9.405C66.3057 9.79078 66.4161 10.1481 66.5629 10.4825L51.7435 25.7409ZM62.365 26.3716C62.1879 26.5545 61.7657 26.8317 61.3122 27.0156C60.8607 27.2072 60.3644 27.3109 60.1108 27.3053H54.2288L68.6041 12.5023C68.9299 12.6416 69.2738 12.7472 69.6482 12.7872L75.3777 13.3587L62.365 26.3716Z" fill="#5A5A5A"/>
    </g>
    <defs>
    <clipPath id="clip0_10_2460">
    <rect width="80" height="80" fill="white"/>
    </clipPath>
    </defs>
    </svg>
    